<svg width="25" height="26" viewBox="0 0 25 26" fill="none" xmlns="http://www.w3.org/2000/svg">
<path fill-rule="evenodd" clip-rule="evenodd" d="M12.5 0.997559C5.5965 0.997559 0 6.59434 0 13.497C0 20.4018 5.5965 25.9981 12.5 25.9981C19.4035 25.9981 25 20.4018 25 13.497C25 6.59434 19.4035 0.997559 12.5 0.997559ZM16.8203 14.1599L10.5703 18.0669C10.4439 18.1459 10.3 18.1852 10.1563 18.1852C10.0261 18.1852 9.89548 18.1524 9.77749 18.0868C9.52916 17.9497 9.37502 17.6873 9.37502 17.4046V9.59165C9.37502 9.30776 9.52916 9.04593 9.77749 8.90831C10.0258 8.7696 10.3295 8.77767 10.5703 8.92929L16.8203 12.8346C17.0486 12.9782 17.1875 13.2287 17.1875 13.497C17.1875 13.7669 17.0486 14.018 16.8203 14.1599Z" fill="white"/>
</svg>
